<svg width="32" height="32" viewBox="0 0 32 32" fill="none" xmlns="http://www.w3.org/2000/svg">
<path d="M27.7177 25.7312L24.8827 5.22705C24.7102 3.97808 23.5865 3 22.306 3L10.3785 3.1008C9.11301 3.11025 7.98688 4.10093 7.81521 5.35462L5.02116 25.732C4.93453 26.3667 5.11644 26.9951 5.52043 27.4582C5.92442 27.9212 6.52213 28.1866 7.16316 28.1866H25.5788C26.2191 28.1866 26.8176 27.9212 27.2216 27.4582C27.6256 26.9951 27.8059 26.3659 27.7177 25.7312ZM16.3706 12.8209C13.0678 12.8209 10.3801 10.1332 10.3801 6.8304C10.3801 6.39491 10.7321 6.0429 11.1676 6.0429C11.6031 6.0429 11.9551 6.39491 11.9551 6.8304C11.9551 9.26535 13.9364 11.2459 16.3706 11.2459C18.8048 11.2459 20.7861 9.26456 20.7861 6.8304C20.7861 6.39491 21.1381 6.0429 21.5736 6.0429C22.0091 6.0429 22.3611 6.39491 22.3611 6.8304C22.3611 10.1332 19.6734 12.8209 16.3706 12.8209Z" fill="currentColor"/>
</svg>
