<svg width="24" height="24" viewBox="0 0 24 24" fill="none" xmlns="http://www.w3.org/2000/svg">
<path fill-rule="evenodd" clip-rule="evenodd" d="M5 3H19C20.1 3 21 3.9 21 5V19C21 20.1 20.1 21 19 21H5C3.9 21 3 20.1 3 19V5C3 3.9 3.9 3 5 3ZM9.29978 16.2901C9.68978 16.6801 10.3198 16.6801 10.7098 16.2901L18.2898 8.70011C18.6798 8.31011 18.6798 7.68011 18.2898 7.29011C17.8998 6.90011 17.2698 6.90011 16.8798 7.29011L9.99978 14.1701L7.11978 11.2901C6.72978 10.9001 6.09978 10.9001 5.70978 11.2901C5.52253 11.4769 5.4173 11.7306 5.4173 11.9951C5.4173 12.2596 5.52253 12.5133 5.70978 12.7001L9.29978 16.2901Z" fill="#08411E"/>
</svg>
