<svg width="81" height="70" viewBox="0 0 81 70" fill="none" xmlns="http://www.w3.org/2000/svg">
<path d="M23.6972 11.7086H21.8974V58.121H23.6972V58.716H3V58.121H4.79976V11.7086H3V11.1136H9.71909V11.7086H8.69923V58.121H11.3989V11.7086H10.379V11.1136H16.3182V11.7086H15.2983V58.121H17.998V11.7086H16.9781V11.1136H23.6972V11.7086Z" fill="currentColor"/>
<path d="M24.8872 11H34.0277V14.3401H28.461V32.6767H32.9968V35.9486H28.461V55.3759H34.0277V58.716H24.8872V11Z" fill="currentColor"/>
<path d="M42.9154 11H49.1007L52.1246 58.716H48.5509L48.0011 47.6732H44.015L43.4652 58.716H39.8914L42.9154 11ZM47.8636 44.333L46.3517 15.5671H45.6644L44.1524 44.333H47.8636Z" fill="currentColor"/>
<path d="M53.5158 11H57.0895C58.0517 11 58.9451 11.2045 59.7698 11.6135C60.5945 12.0225 61.3276 12.7041 61.969 13.6585C62.6105 14.5673 63.1145 15.7943 63.481 17.3394C63.8475 18.8391 64.0308 20.7023 64.0308 22.929C64.0308 25.1103 63.8475 26.9508 63.481 28.4504C63.1603 29.9046 62.6792 31.0862 62.0378 31.995C61.4421 32.9039 60.7091 33.5629 59.8385 33.9718C59.0138 34.3354 58.0975 34.5172 57.0895 34.5172V35.1988H57.9829C59.9073 35.1988 61.3963 35.7442 62.4501 36.8348C63.5039 37.9255 64.0308 39.5842 64.0308 41.8109V55.7167C64.0308 56.3529 64.0766 56.8528 64.1683 57.2164C64.2599 57.5345 64.3515 57.7844 64.4432 57.9662C64.5806 58.1479 64.741 58.2843 64.9242 58.3752V58.716H62.4501C61.7629 58.716 61.2589 58.5342 60.9382 58.1707C60.6174 57.8071 60.4571 57.1027 60.4571 56.0575V41.8109C60.4571 40.5839 60.2051 39.6978 59.7011 39.1524C59.1971 38.6071 58.4869 38.3344 57.5706 38.3344H57.0895V58.716H53.5158V11ZM57.4331 31.3815C57.7997 31.3815 58.1433 31.2907 58.464 31.1089C58.7847 30.8817 59.0596 30.4727 59.2887 29.8819C59.5636 29.2457 59.7698 28.3823 59.9073 27.2916C60.0905 26.1555 60.1822 24.6786 60.1822 22.8608C60.1822 21.0431 60.0905 19.5889 59.9073 18.4982C59.7698 17.3621 59.5636 16.4987 59.2887 15.9079C59.0596 15.2717 58.7847 14.8627 58.464 14.6809C58.1433 14.4537 57.7997 14.3401 57.4331 14.3401H57.0895V31.3815H57.4331Z" fill="currentColor"/>
<path d="M78.0389 27.1794C78.0789 27.2587 78.0189 27.3381 77.8589 27.4174C77.7389 27.4967 77.6589 27.4769 77.6189 27.3579C77.299 26.7629 77.039 26.1678 76.839 25.5728C75.0393 20.3762 74.1394 15.7548 74.1394 11.7086H73.5995V58.121H75.3992V58.716H67.9002V58.121H69.7V11.7086H69.1601C69.0801 13.6523 68.8601 15.735 68.5002 17.9564C68.0602 20.3365 67.3803 22.8753 66.4604 25.5728C66.2605 26.1678 66.0005 26.7629 65.6805 27.3579C65.6406 27.4769 65.5406 27.4967 65.3806 27.4174C65.2606 27.3381 65.2206 27.2587 65.2606 27.1794C65.9005 25.6323 66.2205 23.0935 66.2205 19.563C66.2205 16.6275 65.9005 14.0094 65.2606 11.7086C65.2206 11.5499 65.2406 11.3516 65.3206 11.1136H77.9789C78.0589 11.3516 78.0789 11.5499 78.0389 11.7086C77.399 14.0094 77.079 16.6275 77.079 19.563C77.079 23.0935 77.399 25.6323 78.0389 27.1794Z" fill="currentColor"/>
</svg>
