<svg width="32" height="32" viewBox="0 0 32 32" fill="none" xmlns="http://www.w3.org/2000/svg">
<path d="M17.9192 17.828C17.2384 18.5088 16.3352 18.8832 15.372 18.8832C14.4088 18.8832 13.5056 18.5088 12.8248 17.828C12.144 17.148 11.7704 16.244 11.7704 15.2816C11.7704 14.3192 12.1448 13.4152 12.8248 12.7344C13.5056 12.0536 14.4088 11.6792 15.372 11.6792C16.3352 11.6792 17.2384 12.0536 17.9192 12.7344C18.6 13.4144 18.9736 14.3192 18.9736 15.2816C18.9736 16.244 18.6 17.148 17.9192 17.828ZM28.8 16C28.8 23.0576 23.0576 28.8 16 28.8C8.94241 28.8 3.20001 23.0576 3.20001 16C3.20001 8.94235 8.94241 3.19995 16 3.19995C23.0576 3.19995 28.8 8.94155 28.8 16ZM21.6952 20.4544L19.5784 18.332C20.2216 17.4496 20.5736 16.3936 20.5736 15.2808C20.5736 13.8912 20.0328 12.5848 19.0504 11.6024C18.068 10.62 16.7624 10.0784 15.372 10.0784C13.9816 10.0784 12.676 10.62 11.6936 11.6024C10.7112 12.5848 10.1704 13.8912 10.1704 15.2808C10.1704 16.6704 10.712 17.9768 11.6936 18.9584C12.676 19.9408 13.9816 20.4824 15.372 20.4824C16.496 20.4824 17.5632 20.1224 18.4512 19.4664L20.5624 21.5832C20.7184 21.74 20.9232 21.8184 21.1288 21.8184C21.3336 21.8184 21.5376 21.7408 21.6936 21.5848C22.0064 21.2744 22.0064 20.7672 21.6952 20.4544Z" fill="currentColor"/>
</svg>
